# xmcd
#
# Track frame offsets: 
#        150
#        11728
#        21385
#        33539
#        46596
#        58570
#        72879
#        84539
#        95441
#        113384
#        131537
#
# Disc length: 1924 seconds
#
# Revision: 0
# Processed by: cddbd v1.5.2PL0 Copyright (c) Steve Scherf et al.
# Submitted via: ExactAudioCopyFreeDBPlugin 1.0
#
DISCID=8407820b
DTITLE=Various Artist - Suite Steel: The Pedal Steel Guitar Album
DYEAR=2018
DGENRE=Country
TTITLE0=Buddy Emmons - Down On The Corner
TTITLE1=Sneaky Pete - Blackbird
TTITLE2=Rusty Young - Everybody's Talkin'
TTITLE3=Buddy Emmons - Wichita Lineman
TTITLE4=Jay Dee Maness - Muddy Mississippi Line
TTITLE5=Red Rhodes - Something
TTITLE6=Sneaky Pete, Rusty Young - Sunshine Of Your Love
TTITLE7=Buddy Emmons, Sneaky Pete - Yesterday
TTITLE8=Buddy Emmons - Turn Any Corner
TTITLE9=Buddy Emmons - L'Hiver Sur La Plage
TTITLE10=Rusty Young - Prodigal
EXTD=
EXTT0=
EXTT1=
EXTT2=
EXTT3=
EXTT4=
EXTT5=
EXTT6=
EXTT7=
EXTT8=
EXTT9=
EXTT10=
PLAYORDER=
